<?xml version="1.0" encoding="utf-8"?>
<svg viewBox="0 0 1024 1024" version="1.2" baseProfile="tiny-ps" xmlns="http://www.w3.org/2000/svg">
  <title>Voidustries_Logo_V1_PS</title>
  <path d="M 512 118.320 C 512 119.844, 510.480 117.175, 574.184 227.500 C 663.798 382.697, 669 391.773, 669 392.948 C 669 393.591, 669.375 393.886, 669.834 393.603 C 670.629 393.111, 749.112 527.725, 749.858 530.860 C 750.056 531.688, 756.337 542.971, 763.818 555.933 C 771.299 568.895, 780.399 584.675, 784.042 591 C 787.684 597.325, 791.198 602.500, 791.850 602.500 C 792.503 602.500, 798.121 593.500, 804.335 582.500 C 819.002 556.539, 841.771 516.334, 843.978 512.500 C 851.515 499.405, 871 464.751, 871 464.441 C 871 463.519, 831.123 394.859, 829.508 393 C 827.517 390.708, 671 119.180, 671 118.017 C 671 117.336, 644.732 117, 591.500 117 C 526.304 117, 512 117.238, 512 118.320" stroke="none" fill="#93349c" fill-rule="evenodd" />
  <path d="M 34 118.404 C 34 120.051, 32.680 117.704, 64.711 173 C 69.649 181.525, 79.899 199.300, 87.489 212.500 C 95.080 225.700, 104.541 242.125, 108.516 249 C 119.110 267.329, 165.847 348.310, 179.214 371.500 C 188.466 387.551, 363.468 690.754, 392.770 741.500 C 403.885 760.750, 429.226 804.696, 437.458 819 C 441.415 825.875, 448.183 837.575, 452.498 845 C 456.813 852.425, 462.673 862.550, 465.521 867.500 C 468.368 872.450, 475.111 884.150, 480.505 893.500 C 488.907 908.064, 497.473 922.933, 507.725 940.750 C 509.070 943.087, 510.544 945, 511 945 C 511.456 945, 512.930 943.088, 514.277 940.750 C 515.623 938.413, 520.098 930.650, 524.222 923.500 C 528.346 916.350, 536.126 902.850, 541.511 893.500 C 546.896 884.150, 553.646 872.450, 556.511 867.500 C 563.033 856.233, 569.713 844.648, 604.947 783.500 C 620.476 756.550, 634.657 732.025, 636.460 729 C 656.457 695.453, 750.070 531.690, 749.825 530.686 C 749.005 527.329, 670.516 393.084, 669.794 393.806 C 669.345 394.255, 645.749 434.870, 617.359 484.061 C 546.241 607.287, 542.295 614.135, 525.934 642.718 C 517.995 656.587, 511.275 667.939, 511 667.943 C 510.725 667.948, 508.415 664.250, 505.866 659.726 C 503.317 655.202, 493.704 638.450, 484.503 622.500 C 475.303 606.550, 465.331 589.225, 462.344 584 C 459.356 578.775, 415.605 502.950, 365.118 415.500 L 273.323 256.500 354.277 256.244 C 431.503 256, 435.209 255.906, 434.762 254.198 C 434.505 253.214, 417.330 223.038, 396.597 187.142 C 375.864 151.245, 358.400 120.778, 357.790 119.437 L 356.679 117 195.339 117 C 57.500 117, 34 117.204, 34 118.404 M 671.261 118.750 C 672.045 121.523, 828.681 392.394, 829.698 392.733 C 830.200 392.900, 831.664 391.116, 832.952 388.768 C 834.240 386.421, 838.555 378.875, 842.541 372 C 846.527 365.125, 862.499 337.450, 878.034 310.500 C 893.569 283.550, 909.661 255.650, 913.795 248.500 C 917.929 241.350, 928.155 223.575, 936.519 209 C 944.884 194.425, 954.865 177.100, 958.701 170.500 C 983.730 127.430, 989 118.217, 989 117.531 C 989 117.239, 917.398 117, 829.883 117 C 678.822 117, 670.792 117.089, 671.261 118.750" stroke="none" fill="#3463fb" fill-rule="evenodd" />
</svg>